<?xml version="1.0" standalone="no"?>
<!DOCTYPE svg PUBLIC "-//W3C//DTD SVG 20010904//EN"
 "http://www.w3.org/TR/2001/REC-SVG-20010904/DTD/svg10.dtd">
<svg version="1.0" xmlns="http://www.w3.org/2000/svg"
 width="520.000000pt" height="520.000000pt" viewBox="0 0 520.000000 520.000000"
 preserveAspectRatio="xMidYMid meet">
<metadata>
Created by potrace 1.14, written by Peter Selinger 2001-2017
</metadata>
<g transform="translate(0.000000,520.000000) scale(0.100000,-0.100000)"
fill="#000000" stroke="none">
<path d="M3285 4319 c-129 -18 -356 -90 -418 -134 -19 -13 -183 -15 -1247 -15
-1331 0 -1287 2 -1383 -55 -92 -54 -167 -159 -187 -264 -6 -33 -10 -325 -10
-770 0 -778 0 -784 56 -878 53 -90 156 -164 257 -184 l57 -12 0 -263 0 -264
105 0 105 0 0 -265 0 -265 290 0 290 0 0 265 0 265 1400 0 1400 0 0 -265 0
-265 290 0 290 0 0 265 0 265 105 0 105 0 0 264 0 264 44 6 c116 18 251 128
298 243 l23 58 3 739 c2 470 -1 758 -8 793 -27 149 -141 270 -290 309 -42 11
-137 14 -432 14 l-377 0 -68 34 c-79 39 -198 80 -298 101 -89 19 -308 27 -400
14z m380 -175 c308 -64 576 -264 728 -544 163 -299 171 -682 19 -985 -131
-262 -349 -454 -620 -546 -516 -175 -1071 56 -1314 546 -124 249 -144 545 -56
815 66 203 218 410 394 536 83 60 253 139 350 164 157 41 344 46 499 14z
m-1112 -196 c-361 -369 -449 -946 -215 -1413 54 -109 114 -195 197 -283 43
-45 73 -82 69 -82 -5 0 -508 0 -1117 0 -1212 0 -1146 -3 -1211 58 -16 15 -39
50 -52 77 l-24 50 0 733 c0 798 -2 763 57 840 14 19 49 45 77 58 l51 24 1115
0 1114 0 -61 -62z m2333 27 c30 -19 60 -49 79 -79 l30 -49 3 -741 c2 -669 1
-745 -14 -785 -22 -58 -70 -110 -121 -133 -42 -19 -96 -20 -527 -18 l-59 0 71
74 c217 229 332 521 332 847 0 328 -117 620 -344 857 l-60 63 280 -3 281 -3
49 -30z m-256 -2156 l0 -179 -2030 0 -2030 0 0 180 0 180 1140 0 1140 0 68
-34 c305 -153 756 -154 1047 -2 l60 31 290 5 c160 3 296 3 303 1 9 -2 12 -47
12 -182z m-3590 -530 l0 -179 -130 0 -130 0 0 178 c0 98 2 181 4 183 2 2 61 3
130 1 l126 -3 0 -180z m3380 1 l0 -180 -130 0 -130 0 0 180 0 180 130 0 130 0
0 -180z"/>
<path d="M3350 3904 c-110 -21 -177 -41 -249 -75 -487 -228 -627 -848 -286
-1262 371 -449 1084 -374 1354 143 61 118 82 198 88 336 9 192 -30 339 -127
487 -111 170 -285 296 -483 348 -70 19 -247 32 -297 23z m254 -180 c188 -48
338 -170 427 -349 158 -320 32 -700 -290 -869 -93 -48 -179 -69 -291 -70 -118
-1 -180 14 -298 71 -155 74 -269 203 -329 375 -23 63 -26 90 -27 198 -1 104 3
138 22 200 67 216 241 384 456 440 90 24 245 26 330 4z"/>
<path d="M3350 3529 c-181 -35 -338 -212 -352 -394 l-3 -48 80 -1 79 -1 7 41
c22 127 118 226 238 243 l46 6 3 83 3 82 -28 -1 c-15 -1 -48 -5 -73 -10z"/>
<path d="M440 3670 l0 -80 580 0 580 0 0 80 0 80 -580 0 -580 0 0 -80z"/>
<path d="M440 3350 l0 -80 260 0 260 0 0 80 0 80 -260 0 -260 0 0 -80z"/>
<path d="M410 2775 l0 -345 765 0 765 0 0 345 0 345 -765 0 -765 0 0 -345z
m1370 -5 l0 -180 -602 2 -603 3 -2 178 -2 177 605 0 604 0 0 -180z"/>
</g>
</svg>
