<?xml version="1.0" standalone="no"?>
<!DOCTYPE svg PUBLIC "-//W3C//DTD SVG 20010904//EN"
 "http://www.w3.org/TR/2001/REC-SVG-20010904/DTD/svg10.dtd">
<svg version="1.0" xmlns="http://www.w3.org/2000/svg"
 width="682.000000pt" height="682.000000pt" viewBox="0 0 682.000000 682.000000"
 preserveAspectRatio="xMidYMid meet">
<metadata>
Created by potrace 1.14, written by Peter Selinger 2001-2017
</metadata>
<g transform="translate(0.000000,682.000000) scale(0.100000,-0.100000)"
fill="#000000" stroke="none">
<path d="M1580 5098 c-64 -33 -85 -67 -85 -138 0 -63 16 -95 69 -134 27 -21
34 -21 1137 -24 1235 -3 1151 -7 1206 65 59 77 32 186 -57 231 l-44 22 -1091
0 -1091 0 -44 -22z"/>
<path d="M4350 5098 c-33 -17 -51 -35 -67 -68 l-23 -44 0 -1184 c0 -651 -3
-1182 -7 -1180 -5 2 -39 20 -76 42 -140 79 -287 113 -447 102 -118 -7 -192
-26 -296 -76 -447 -215 -589 -777 -299 -1185 148 -209 381 -327 645 -327 363
0 662 226 772 584 l23 73 3 1473 2 1472 23 0 c12 0 65 -15 119 -33 288 -100
514 -351 583 -650 8 -36 19 -110 23 -165 7 -78 14 -106 31 -131 57 -80 164
-88 237 -19 47 44 56 88 45 212 -18 182 -57 313 -139 471 -190 361 -542 598
-955 644 -132 15 -146 14 -197 -11z"/>
<path d="M1580 4458 c-64 -33 -85 -67 -85 -138 0 -63 16 -95 69 -134 27 -21
34 -21 1137 -24 1235 -3 1151 -7 1206 65 59 77 32 186 -57 231 l-44 22 -1091
0 -1091 0 -44 -22z"/>
<path d="M1581 3818 c-65 -33 -86 -67 -86 -138 0 -63 16 -95 69 -134 27 -21
37 -21 616 -21 581 0 589 0 617 21 98 73 98 195 0 268 -28 21 -38 21 -600 24
l-572 3 -44 -23z"/>
</g>
</svg>
